<svg xmlns="http://www.w3.org/2000/svg" viewBox="0 0 20 28">
    <defs>
        <linearGradient id="globalGradient" x1="0" y1="0" x2="20" y2="28" gradientUnits="userSpaceOnUse">
            <stop offset="0%" stop-color="#00ddffff"/>
            <stop offset="100%" stop-color="#2f00ffff"/>
        </linearGradient>
    </defs>
	
    <g id="document">
        <path id="document-bg" d="M 0 0 L 16.5 0 L 16.5 2.5 C 16.5 3.5 16.5 3.5 17.5 3.5 L 20 3.5 L 20 28 L 0 28 Z M 17 0 L 17 2 C 17 3 17 3 18 3 L 20 3 Z" fill="url(#globalGradient)"/>
        <path id="corner-highlight" d="M 16.5 0 L 16.5 2.5 C 16.5 3.5 16.5 3.5 17.5 3.5 L 20 3.5 L 20 3 L 18 3 C 17 3 17 3 17 2 L 17 2 L 17 0 Z" fill="#ffffff"/>
        
        <path id="lineTop" d="M 2 14 L 18 14 L 18 16 L 2 16 Z" fill="#ffffff" />
        <path id="lineMiddle" d="M 2 18 L 18 18 L 18 20 L 2 20 Z" fill="#ffffff" />
        <path id="lineBottom" d="M 2 22 L 18 22 L 18 24 L 2 24 Z" fill="#ffffff" />
    </g>
</svg>